<svg width="355" height="94" viewBox="0 0 355 94" fill="none" xmlns="http://www.w3.org/2000/svg">
<path d="M0 94C0 42.0852 42.0852 0 94 0H355V94H0V94Z" fill="url(#paint0_linear_940_325)"/>
<path d="M81.54 59.36C79.4 59.36 77.46 58.9 75.72 57.98C74 57.04 72.64 55.75 71.64 54.11C70.66 52.45 70.17 50.58 70.17 48.5C70.17 46.42 70.66 44.56 71.64 42.92C72.64 41.26 74 39.97 75.72 39.05C77.46 38.11 79.41 37.64 81.57 37.64C83.39 37.64 85.03 37.96 86.49 38.6C87.97 39.24 89.21 40.16 90.21 41.36L87.09 44.24C85.67 42.6 83.91 41.78 81.81 41.78C80.51 41.78 79.35 42.07 78.33 42.65C77.31 43.21 76.51 44 75.93 45.02C75.37 46.04 75.09 47.2 75.09 48.5C75.09 49.8 75.37 50.96 75.93 51.98C76.51 53 77.31 53.8 78.33 54.38C79.35 54.94 80.51 55.22 81.81 55.22C83.91 55.22 85.67 54.39 87.09 52.73L90.21 55.61C89.21 56.83 87.97 57.76 86.49 58.4C85.01 59.04 83.36 59.36 81.54 59.36ZM99.5548 42.62C102.055 42.62 103.975 43.22 105.315 44.42C106.655 45.6 107.325 47.39 107.325 49.79V59H102.945V56.99C102.065 58.49 100.425 59.24 98.0248 59.24C96.7848 59.24 95.7048 59.03 94.7848 58.61C93.8848 58.19 93.1948 57.61 92.7148 56.87C92.2348 56.13 91.9948 55.29 91.9948 54.35C91.9948 52.85 92.5548 51.67 93.6748 50.81C94.8148 49.95 96.5648 49.52 98.9248 49.52H102.645C102.645 48.5 102.335 47.72 101.715 47.18C101.095 46.62 100.165 46.34 98.9248 46.34C98.0648 46.34 97.2148 46.48 96.3748 46.76C95.5548 47.02 94.8548 47.38 94.2748 47.84L92.5948 44.57C93.4748 43.95 94.5248 43.47 95.7448 43.13C96.9848 42.79 98.2548 42.62 99.5548 42.62ZM99.1948 56.09C99.9948 56.09 100.705 55.91 101.325 55.55C101.945 55.17 102.385 54.62 102.645 53.9V52.25H99.4348C97.5148 52.25 96.5548 52.88 96.5548 54.14C96.5548 54.74 96.7848 55.22 97.2448 55.58C97.7248 55.92 98.3748 56.09 99.1948 56.09ZM116.03 44.99C116.59 44.21 117.34 43.62 118.28 43.22C119.24 42.82 120.34 42.62 121.58 42.62V46.94C121.06 46.9 120.71 46.88 120.53 46.88C119.19 46.88 118.14 47.26 117.38 48.02C116.62 48.76 116.24 49.88 116.24 51.38V59H111.56V42.86H116.03V44.99ZM124.363 36.74H129.043V59H124.363V36.74ZM141.067 59.24C139.367 59.24 137.837 58.89 136.477 58.19C135.137 57.47 134.087 56.48 133.327 55.22C132.567 53.96 132.187 52.53 132.187 50.93C132.187 49.33 132.567 47.9 133.327 46.64C134.087 45.38 135.137 44.4 136.477 43.7C137.837 42.98 139.367 42.62 141.067 42.62C142.767 42.62 144.287 42.98 145.627 43.7C146.967 44.4 148.017 45.38 148.777 46.64C149.537 47.9 149.917 49.33 149.917 50.93C149.917 52.53 149.537 53.96 148.777 55.22C148.017 56.48 146.967 57.47 145.627 58.19C144.287 58.89 142.767 59.24 141.067 59.24ZM141.067 55.4C142.267 55.4 143.247 55 144.007 54.2C144.787 53.38 145.177 52.29 145.177 50.93C145.177 49.57 144.787 48.49 144.007 47.69C143.247 46.87 142.267 46.46 141.067 46.46C139.867 46.46 138.877 46.87 138.097 47.69C137.317 48.49 136.927 49.57 136.927 50.93C136.927 52.29 137.317 53.38 138.097 54.2C138.877 55 139.867 55.4 141.067 55.4ZM158.475 59.24C157.135 59.24 155.825 59.08 154.545 58.76C153.265 58.42 152.245 58 151.485 57.5L153.045 54.14C153.765 54.6 154.635 54.98 155.655 55.28C156.675 55.56 157.675 55.7 158.655 55.7C160.635 55.7 161.625 55.21 161.625 54.23C161.625 53.77 161.355 53.44 160.815 53.24C160.275 53.04 159.445 52.87 158.325 52.73C157.005 52.53 155.915 52.3 155.055 52.04C154.195 51.78 153.445 51.32 152.805 50.66C152.185 50 151.875 49.06 151.875 47.84C151.875 46.82 152.165 45.92 152.745 45.14C153.345 44.34 154.205 43.72 155.325 43.28C156.465 42.84 157.805 42.62 159.345 42.62C160.485 42.62 161.615 42.75 162.735 43.01C163.875 43.25 164.815 43.59 165.555 44.03L163.995 47.36C162.575 46.56 161.025 46.16 159.345 46.16C158.345 46.16 157.595 46.3 157.095 46.58C156.595 46.86 156.345 47.22 156.345 47.66C156.345 48.16 156.615 48.51 157.155 48.71C157.695 48.91 158.555 49.1 159.735 49.28C161.055 49.5 162.135 49.74 162.975 50C163.815 50.24 164.545 50.69 165.165 51.35C165.785 52.01 166.095 52.93 166.095 54.11C166.095 55.11 165.795 56 165.195 56.78C164.595 57.56 163.715 58.17 162.555 58.61C161.415 59.03 160.055 59.24 158.475 59.24ZM182.668 41.9V47.45H192.388V51.35H182.668V59H177.808V38H193.678V41.9H182.668ZM212.488 42.86V59H208.048V57.08C207.428 57.78 206.688 58.32 205.828 58.7C204.968 59.06 204.038 59.24 203.038 59.24C200.918 59.24 199.238 58.63 197.998 57.41C196.758 56.19 196.138 54.38 196.138 51.98V42.86H200.818V51.29C200.818 53.89 201.908 55.19 204.088 55.19C205.208 55.19 206.108 54.83 206.788 54.11C207.468 53.37 207.808 52.28 207.808 50.84V42.86H212.488ZM232.634 50.99C232.634 51.05 232.604 51.47 232.544 52.25H220.334C220.554 53.25 221.074 54.04 221.894 54.62C222.714 55.2 223.734 55.49 224.954 55.49C225.794 55.49 226.534 55.37 227.174 55.13C227.834 54.87 228.444 54.47 229.004 53.93L231.494 56.63C229.974 58.37 227.754 59.24 224.834 59.24C223.014 59.24 221.404 58.89 220.004 58.19C218.604 57.47 217.524 56.48 216.764 55.22C216.004 53.96 215.624 52.53 215.624 50.93C215.624 49.35 215.994 47.93 216.734 46.67C217.494 45.39 218.524 44.4 219.824 43.7C221.144 42.98 222.614 42.62 224.234 42.62C225.814 42.62 227.244 42.96 228.524 43.64C229.804 44.32 230.804 45.3 231.524 46.58C232.264 47.84 232.634 49.31 232.634 50.99ZM224.264 46.16C223.204 46.16 222.314 46.46 221.594 47.06C220.874 47.66 220.434 48.48 220.274 49.52H228.224C228.064 48.5 227.624 47.69 226.904 47.09C226.184 46.47 225.304 46.16 224.264 46.16ZM245.56 42.62C247.56 42.62 249.17 43.22 250.39 44.42C251.63 45.62 252.25 47.4 252.25 49.76V59H247.57V50.48C247.57 49.2 247.29 48.25 246.73 47.63C246.17 46.99 245.36 46.67 244.3 46.67C243.12 46.67 242.18 47.04 241.48 47.78C240.78 48.5 240.43 49.58 240.43 51.02V59H235.75V42.86H240.22V44.75C240.84 44.07 241.61 43.55 242.53 43.19C243.45 42.81 244.46 42.62 245.56 42.62ZM266.902 58.22C266.442 58.56 265.872 58.82 265.192 59C264.532 59.16 263.832 59.24 263.092 59.24C261.172 59.24 259.682 58.75 258.622 57.77C257.582 56.79 257.062 55.35 257.062 53.45V46.82H254.572V43.22H257.062V39.29H261.742V43.22H265.762V46.82H261.742V53.39C261.742 54.07 261.912 54.6 262.252 54.98C262.612 55.34 263.112 55.52 263.752 55.52C264.492 55.52 265.122 55.32 265.642 54.92L266.902 58.22ZM284.841 50.99C284.841 51.05 284.811 51.47 284.751 52.25H272.541C272.761 53.25 273.281 54.04 274.101 54.62C274.921 55.2 275.941 55.49 277.161 55.49C278.001 55.49 278.741 55.37 279.381 55.13C280.041 54.87 280.651 54.47 281.211 53.93L283.701 56.63C282.181 58.37 279.961 59.24 277.041 59.24C275.221 59.24 273.611 58.89 272.211 58.19C270.811 57.47 269.731 56.48 268.971 55.22C268.211 53.96 267.831 52.53 267.831 50.93C267.831 49.35 268.201 47.93 268.941 46.67C269.701 45.39 270.731 44.4 272.031 43.7C273.351 42.98 274.821 42.62 276.441 42.62C278.021 42.62 279.451 42.96 280.731 43.64C282.011 44.32 283.011 45.3 283.731 46.58C284.471 47.84 284.841 49.31 284.841 50.99ZM276.471 46.16C275.411 46.16 274.521 46.46 273.801 47.06C273.081 47.66 272.641 48.48 272.481 49.52H280.431C280.271 48.5 279.831 47.69 279.111 47.09C278.391 46.47 277.511 46.16 276.471 46.16ZM293.387 59.24C292.047 59.24 290.737 59.08 289.457 58.76C288.177 58.42 287.157 58 286.397 57.5L287.957 54.14C288.677 54.6 289.547 54.98 290.567 55.28C291.587 55.56 292.587 55.7 293.567 55.7C295.547 55.7 296.537 55.21 296.537 54.23C296.537 53.77 296.267 53.44 295.727 53.24C295.187 53.04 294.357 52.87 293.237 52.73C291.917 52.53 290.827 52.3 289.967 52.04C289.107 51.78 288.357 51.32 287.717 50.66C287.097 50 286.787 49.06 286.787 47.84C286.787 46.82 287.077 45.92 287.657 45.14C288.257 44.34 289.117 43.72 290.237 43.28C291.377 42.84 292.717 42.62 294.257 42.62C295.397 42.62 296.527 42.75 297.647 43.01C298.787 43.25 299.727 43.59 300.467 44.03L298.907 47.36C297.487 46.56 295.937 46.16 294.257 46.16C293.257 46.16 292.507 46.3 292.007 46.58C291.507 46.86 291.257 47.22 291.257 47.66C291.257 48.16 291.527 48.51 292.067 48.71C292.607 48.91 293.467 49.1 294.647 49.28C295.967 49.5 297.047 49.74 297.887 50C298.727 50.24 299.457 50.69 300.077 51.35C300.697 52.01 301.007 52.93 301.007 54.11C301.007 55.11 300.707 56 300.107 56.78C299.507 57.56 298.627 58.17 297.467 58.61C296.327 59.03 294.967 59.24 293.387 59.24Z" fill="white"/>
<defs>
<linearGradient id="paint0_linear_940_325" x1="-14.5" y1="61.5" x2="355" y2="58" gradientUnits="userSpaceOnUse">
<stop stop-color="#F49B4C"/>
<stop offset="1" stop-color="#F49B4C" stop-opacity="0"/>
</linearGradient>
</defs>
</svg>
