<svg width="50" height="50" viewBox="0 0 50 50" fill="none" xmlns="http://www.w3.org/2000/svg">
<path d="M32.9673 17.0327L26.7037 23.2963M32.9673 17.0327V9.51634L40.4837 2V9.51634H48L40.4837 17.0327H32.9673Z" stroke="#F49B4C" stroke-width="4" stroke-linecap="round" stroke-linejoin="round"/>
<path d="M25.8433 2H25C20.451 2 16.0042 3.34893 12.2219 5.8762C8.43956 8.40347 5.4916 11.9956 3.75078 16.1983C2.00997 20.401 1.55449 25.0255 2.44195 29.4871C3.32941 33.9486 5.51995 38.0468 8.73655 41.2634C11.9532 44.48 16.0514 46.6706 20.5129 47.558C24.9745 48.4455 29.599 47.99 33.8017 46.2492C38.0044 44.5084 41.5965 41.5604 44.1238 37.7781C46.6511 33.9958 48 29.549 48 25C48 24.7189 48 24.4378 48 24.1567" stroke="#525252" stroke-width="4" stroke-linecap="round" stroke-linejoin="round"/>
<path d="M37.7778 27.4542C37.3108 29.7388 36.2338 31.8542 34.661 33.5758C33.0882 35.2973 31.0785 36.5607 28.8453 37.2317C26.6122 37.9027 24.2389 37.9563 21.9777 37.3867C19.7166 36.8172 17.6519 35.6457 16.003 33.9969C14.3542 32.3481 13.1828 30.2834 12.6132 28.0222C12.0437 25.761 12.0972 23.3878 12.7682 21.1546C13.4392 18.9214 14.7026 16.9117 16.4242 15.339C18.1457 13.7662 20.2612 12.6891 22.5457 12.2222" stroke="#525252" stroke-width="4" stroke-linecap="round" stroke-linejoin="round"/>
</svg>
